<svg width="25" height="24" viewBox="0 0 25 24" fill="none" xmlns="http://www.w3.org/2000/svg">
<path d="M17.5217 2.26367C18.1513 2.32616 18.7433 2.60438 19.1946 3.05566C19.7102 3.57138 20.0002 4.2707 20.0002 5V19C20.0002 19.7293 19.7102 20.4286 19.1946 20.9443C18.6789 21.46 17.9795 21.75 17.2502 21.75H7.25024C6.52094 21.75 5.82162 21.46 5.30591 20.9443C4.79018 20.4286 4.50024 19.7293 4.50024 19V5C4.50024 4.27065 4.79018 3.57139 5.30591 3.05566C5.82162 2.54 6.52094 2.25 7.25024 2.25H17.2502L17.5217 2.26367ZM6.00024 19L6.0061 19.124C6.03461 19.41 6.16145 19.6788 6.36646 19.8838C6.60087 20.1182 6.91877 20.25 7.25024 20.25H17.2502C17.5817 20.25 17.8997 20.1182 18.134 19.8838C18.3684 19.6494 18.5002 19.3315 18.5002 19V10.75H6.00024V19ZM9.25024 12.25C9.66435 12.2501 10.0002 12.5859 10.0002 13V16C10.0002 16.4141 9.66433 16.7499 9.25024 16.75C8.83605 16.75 8.50028 16.4142 8.50024 16V13C8.50024 12.5858 8.83603 12.25 9.25024 12.25ZM7.25024 3.75C6.91877 3.75 6.60087 3.88185 6.36646 4.11621C6.13203 4.35063 6.00024 4.66848 6.00024 5V9.25H18.5002V5C18.5002 4.66852 18.3684 4.35062 18.134 4.11621C17.9291 3.91124 17.6602 3.78439 17.3743 3.75586L17.2502 3.75H7.25024ZM9.25024 5.25C9.66435 5.25013 10.0002 5.58587 10.0002 6V7C10.0002 7.41413 9.66435 7.74987 9.25024 7.75C8.83603 7.75 8.50024 7.41421 8.50024 7V6C8.50024 5.58579 8.83603 5.25 9.25024 5.25Z" fill="black"/>
</svg>
