<svg width="25" height="24" viewBox="0 0 25 24" fill="none" xmlns="http://www.w3.org/2000/svg">
<path d="M17.2498 14.25C18.1116 14.25 18.9381 14.5928 19.5476 15.2021C20.1571 15.8116 20.4998 16.638 20.4998 17.5C20.4998 18.1073 20.3291 18.6965 20.0154 19.2051L22.28 21.4697L22.3318 21.5264C22.5721 21.8209 22.5546 22.2557 22.28 22.5303C22.0054 22.8047 21.5706 22.8223 21.2761 22.582L21.2195 22.5303L18.9548 20.2656C18.4463 20.5792 17.8569 20.75 17.2498 20.75C16.3879 20.7499 15.5613 20.4073 14.9519 19.7979C14.3425 19.1884 13.9998 18.3619 13.9998 17.5C13.9998 16.6381 14.3425 15.8116 14.9519 15.2021C15.5613 14.5927 16.3879 14.2501 17.2498 14.25ZM13.0212 2.26367C13.6508 2.32611 14.2428 2.60442 14.6941 3.05566C15.0288 3.39034 15.2673 3.80268 15.3943 4.25H16.7498L17.0212 4.26367C17.6508 4.32611 18.2428 4.60444 18.6941 5.05566C19.2098 5.57137 19.4997 6.27068 19.4998 7V12C19.4998 12.4142 19.164 12.75 18.7498 12.75C18.3357 12.7498 17.9998 12.4141 17.9998 12V7C17.9997 6.6685 17.868 6.35062 17.6335 6.11621C17.4286 5.91131 17.1597 5.78435 16.8738 5.75586L16.7498 5.75H15.3943C15.2673 6.19732 15.0288 6.60966 14.6941 6.94434C14.2428 7.39558 13.6508 7.67389 13.0212 7.73633L12.7498 7.75H10.7498C10.0205 7.74992 9.32107 7.45999 8.80542 6.94434C8.47085 6.60972 8.23317 6.19721 8.1062 5.75H6.74976C6.4183 5.75005 6.10034 5.88183 5.86597 6.11621C5.6316 6.35061 5.49977 6.66853 5.49976 7V19L5.50562 19.124C5.53411 19.41 5.66103 19.6788 5.86597 19.8838C6.10034 20.1182 6.4183 20.25 6.74976 20.25H12.447L12.5232 20.2539C12.9015 20.2922 13.197 20.6116 13.197 21C13.197 21.3884 12.9015 21.7078 12.5232 21.7461L12.447 21.75H6.74976C6.02048 21.75 5.3211 21.46 4.80542 20.9443C4.35416 20.493 4.07587 19.9011 4.01343 19.2715L3.99976 19V7C3.99977 6.27071 4.28975 5.57137 4.80542 5.05566C5.3211 4.53998 6.02048 4.25005 6.74976 4.25H8.1062C8.23317 3.80279 8.47085 3.39028 8.80542 3.05566C9.32107 2.54001 10.0205 2.25008 10.7498 2.25H12.7498L13.0212 2.26367ZM17.2498 15.75C16.7857 15.7501 16.3406 15.9346 16.0125 16.2627C15.6844 16.5909 15.4998 17.0359 15.4998 17.5C15.4998 17.9641 15.6844 18.4091 16.0125 18.7373C16.3406 19.0654 16.7857 19.2499 17.2498 19.25C17.7138 19.25 18.1589 19.0654 18.4871 18.7373C18.8152 18.4091 18.9998 17.9641 18.9998 17.5C18.9998 17.0359 18.8152 16.5909 18.4871 16.2627C18.1589 15.9346 17.7138 15.75 17.2498 15.75ZM11.7498 14.25C12.164 14.25 12.4998 14.5858 12.4998 15C12.4998 15.4142 12.164 15.75 11.7498 15.75H8.74976C8.33568 15.7498 7.99976 15.4141 7.99976 15C7.99976 14.5859 8.33568 14.2502 8.74976 14.25H11.7498ZM12.7498 10.25C13.1639 10.25 13.4997 10.5858 13.4998 11C13.4998 11.4142 13.164 11.75 12.7498 11.75H8.74976C8.33568 11.7498 7.99976 11.4141 7.99976 11C7.99979 10.5859 8.3357 10.2502 8.74976 10.25H12.7498ZM10.7498 3.75C10.4183 3.75008 10.1003 3.88186 9.86597 4.11621C9.63164 4.35062 9.49976 4.66855 9.49976 5C9.49976 5.33145 9.63164 5.64938 9.86597 5.88379C10.1003 6.11814 10.4183 6.24992 10.7498 6.25H12.7498L12.8738 6.24414C13.1597 6.21565 13.4286 6.08871 13.6335 5.88379C13.868 5.64937 13.9998 5.33152 13.9998 5C13.9998 4.66848 13.868 4.35063 13.6335 4.11621C13.4286 3.91129 13.1597 3.78435 12.8738 3.75586L12.7498 3.75H10.7498Z" fill="black"/>
</svg>
