<svg width="24" height="24" viewBox="0 0 24 24" fill="none" xmlns="http://www.w3.org/2000/svg">
<path d="M12.2124 2.25488C14.1418 2.33972 15.7685 3.57554 16.4311 5.29102C17.4272 5.18048 18.4398 5.38747 19.3198 5.89258C20.4124 6.51979 21.2114 7.55538 21.5405 8.77148C21.8696 9.98762 21.7019 11.2853 21.0747 12.3779C20.5453 13.2998 19.7244 14.0104 18.7505 14.4082V21C18.7505 21.4141 18.4145 21.7498 18.0005 21.75H6.00046C5.58625 21.75 5.25046 21.4142 5.25046 21V14.4092C4.85563 14.2479 4.48307 14.0351 4.14401 13.7734C3.65018 13.3924 3.23571 12.918 2.92526 12.377C2.61488 11.8359 2.41422 11.2387 2.33444 10.6201C2.25471 10.0014 2.29734 9.37263 2.46042 8.77051C2.6235 8.16845 2.90361 7.60419 3.28464 7.11035C3.66578 6.61644 4.14097 6.20206 4.6821 5.8916C5.22318 5.58121 5.82027 5.38051 6.43894 5.30078C6.81502 5.25232 7.19464 5.2494 7.5698 5.29102C7.86853 4.51645 8.36619 3.82924 9.01901 3.30273C9.86314 2.62212 10.9151 2.25032 11.9995 2.25H12.0005L12.2124 2.25488ZM6.75046 17.7578V20.25H17.2505V17.75L6.75046 17.7578ZM11.7231 3.76172C11.0806 3.81683 10.4667 4.06241 9.9614 4.46973C9.38376 4.93547 8.98217 5.58544 8.82468 6.31055C8.781 6.51114 8.65731 6.68531 8.4819 6.79199C8.30631 6.89873 8.09431 6.92872 7.89597 6.875C7.48393 6.76339 7.05372 6.73352 6.63034 6.78809C6.20702 6.84266 5.79842 6.98095 5.42819 7.19336C5.05807 7.40577 4.73285 7.68852 4.47214 8.02637C4.21147 8.36417 4.02029 8.75029 3.90866 9.16211C3.79708 9.57405 3.76724 10.0044 3.82175 10.4277C3.87629 10.851 4.01373 11.2597 4.22605 11.6299C4.43846 12.0001 4.72211 12.3252 5.06003 12.5859C5.39792 12.8467 5.78384 13.0388 6.19577 13.1504C6.52268 13.2389 6.75046 13.5353 6.75046 13.874V16.2578L17.2505 16.25V13.874C17.2505 13.5353 17.4772 13.2389 17.8042 13.1504C18.6362 12.9252 19.3447 12.3784 19.7739 11.6309C20.2031 10.8832 20.3174 9.99521 20.0923 9.16309C19.867 8.33123 19.3211 7.62248 18.5737 7.19336C17.8727 6.79094 17.0482 6.66538 16.2622 6.83691L16.1059 6.875C15.9075 6.92868 15.6956 6.89883 15.52 6.79199C15.3444 6.68514 15.2207 6.51046 15.1772 6.30957C14.8603 4.84625 13.5575 3.7502 12.0005 3.75L11.7231 3.76172Z" fill="black"/>
</svg>
